<?xml version="1.0" ?><svg enable-background="new 0 0 64 64" id="Слой_1" version="1.1" viewBox="0 0 64 64" xml:space="preserve" xmlns="http://www.w3.org/2000/svg" xmlns:xlink="http://www.w3.org/1999/xlink"><g id="row_3"><g id="sink"><rect fill="#B0BEC5" height="16" width="18" x="23" y="45"/><path d="M22,49.3c0,1,0.7,1.8,1.7,2c2.6,0.5,5.4,0.8,8.3,0.8s5.7-0.3,8.3-0.8c1-0.2,1.7-1,1.7-2V39H22V49.3z" fill="#90A4AE"/><path d="M56.6,41H7.4c6.4,6.2,15.1,9,24.6,9S50.2,47.2,56.6,41z" fill="#B0BEC5"/><path d="M2,35v4c0,1.1,0.9,2,2,2h56c1.1,0,2-0.9,2-2v-4c0-0.3,0-0.7-0.1-1H2.1C2,34.3,2,34.6,2,35z" fill="#CFD8DC"/><path d="M59.2,25.6c-0.1-0.2-0.1-0.4-0.2-0.6H4.9c0,0.2-0.1,0.4-0.2,0.6l-2.5,7.5c-0.1,0.3-0.2,0.6-0.2,0.9h59.8    c-0.1-0.3-0.1-0.6-0.2-0.9L59.2,25.6z" fill="#ECEFF1"/><path d="M54,33H10c-1,0-1.7-1-1.4-1.9l0,0c0.5-1.8,2.2-3.1,4.1-3.1h38.6c1.9,0,3.6,1.2,4.1,3.1v0    C55.7,32,55,33,54,33z" fill="#B0BEC5"/><path d="M59,24.4v-2.1c0-0.9-0.6-1.7-1.5-1.9C49.4,18.1,40.8,17,32,17s-17.4,1.1-25.5,3.3c-0.9,0.2-1.5,1-1.5,1.9    v2.1c0,0.2,0,0.4-0.1,0.6h54.1C59,24.8,59,24.6,59,24.4z" fill="#CFD8DC"/><g><path d="M25,28c0-1.1,0.9-2,2-2h10c1.1,0,2,0.9,2,2H25z" fill="#757575"/><g><path d="M28.5,27h-2v-2c0-0.6,0.4-1,1-1h0c0.6,0,1,0.4,1,1V27z" fill="#424242"/><path d="M27.5,22.5c0,0.6-4.9,1-5.5,1s-1-0.4-1-1s0.4-1,1-1S27.5,21.9,27.5,22.5z" fill="#616161"/><circle cx="27.5" cy="22.5" fill="#757575" r="1.5"/></g><g><path d="M35.5,27h2v-2c0-0.6-0.4-1-1-1l0,0c-0.6,0-1,0.4-1,1V27z" fill="#424242"/><path d="M36.5,22.5c0,0.6,4.9,1,5.5,1s1-0.4,1-1s-0.4-1-1-1S36.5,21.9,36.5,22.5z" fill="#616161"/><circle cx="36.5" cy="22.5" fill="#757575" r="1.5"/></g><path d="M30.5,14.7c0-1.7,0.4-3.3,1.9-4.5c1.3-1,3.2-1.2,4.4-1.2c2.6,0,4.9,1.9,5,4.7l-3,0c0-1.2-1-2.2-2.1-2.3     c-0.8,0-1.6,0.3-2.1,0.8c-0.6,0.6-1,1.5-1,2.4C33.6,17.8,34,27,34,27h-4C30,27,30.4,17.8,30.5,14.7z" fill="#757575"/></g></g></g></svg>